<?xml version="1.0" encoding="utf-8"?>
<!-- Generator: Adobe Illustrator 25.2.0, SVG Export Plug-In . SVG Version: 6.00 Build 0)  -->
<svg version="1.1" xmlns="http://www.w3.org/2000/svg" xmlns:xlink="http://www.w3.org/1999/xlink" x="0px" y="0px"
	 viewBox="0 0 5000 5000" style="enable-background:new 0 0 5000 5000;" xml:space="preserve">
<style type="text/css">
	.st0{display:none;}
	.st1{display:inline;fill:#6F8B9E;}
	.st2{fill:#FFC295;}
	.st3{fill:#FFFFFF;}
	.st4{fill:#E2E5E7;}
	.st5{fill:#E35E63;}
	.st6{fill:#6C7D8D;}
	.st7{fill:#848C99;}
	.st8{fill:#838B99;}
	.st9{fill:#D7DAE1;}
	.st10{fill:#F4B387;}
	.st11{fill:#FEE2CA;}
	.st12{fill:#FFFEFD;}
	.st13{fill:#323E49;}
	.st14{fill:#3D4D5C;}
	.st15{fill:#E88725;}
	.st16{fill:#F0B919;}
	.st17{fill:#F0E496;}
	.st18{fill:#D9393E;}
	.st19{fill:#DDBF9A;}
	.st20{fill:#2D3538;}
</style>
<g id="Layer_1" class="st0">
	<rect class="st1" width="5000" height="5000"/>
</g>
<g id="Layer_2">
	<path class="st2" d="M2578.34,2858.24c-0.25,4.22-0.43,8.2-0.66,12.17c-0.57,9.9-1.45,19.7-4.54,32.78
		c0,0-18.49,81.72-55.14,109.68c0,0-53.57,70.76-75.1,90.89c-0.56,0.51-1.09,1-1.59,1.44c-0.47,0.42-0.92,0.8-1.36,1.14
		c-0.16,0.14-0.34,0.27-0.49,0.4c-0.16,0.12-0.31,0.25-0.46,0.35c-0.15,0.11-0.29,0.22-0.42,0.32
		c-17.4,12.58-70.21,117.77-70.21,117.77l-216.62,382.36c0,0-40.29,99.04-202.6,212.07c0,0,0,0-0.01,0.01
		c-0.02,0.01-0.04,0.03-0.08,0.07c-0.01,0-0.01,0.01-0.01,0.01c-2.48,2.2-71.92,44.79-134.43,163.82
		c-14.63,27.86,15,584.97,15,584.97l-840.75,169.34L999,4322.02l-10.84-340c-0.47-17.86-101.38-154.22-107.83-170.93
		c-17.58-45.5-97.64-197.09-119.35-247.03l384.69-787.12c4.61-3.94,9.18-8.28,13.65-13.12l67.62-4.64l197.97-302.62l35.22-53.85
		h0.02l93.68-143.21l678.83-788.54c18.98-29.03,50.96-47.17,85.6-47.01c27,0.12,72.65,7.87,93.98,45.44
		c18.1,31.85,22.03,69.79,11.98,104.72c-10.67,37.12-59.61,98.04-116.74,199.93l-352.19,447.79l135.85,216.42l-490.21,684.11
		l516.09-642.88l159.44,254.03l-127.38,164.04l-308.61,379.16l-9.76,27.55c3.74-4.47,443.15-542.16,510.26-559.41
		c0,0,16.82-15.36,45.96-26.76c84.44-33,178.49,20.81,190.26,110.71C2578.26,2837.03,2578.88,2849.42,2578.34,2858.24z"/>
	<path class="st3" d="M3587.57,3922.7l-2430.82,0.51c-36.79,0.01-66.62-29.81-66.63-66.6l-0.72-3406.16
		c-0.01-36.79,29.81-66.62,66.6-66.63l2430.82-0.51c36.79-0.01,66.62,29.81,66.63,66.6l0.72,3406.16
		C3654.18,3892.87,3624.36,3922.7,3587.57,3922.7z"/>
	<path class="st4" d="M1881.25,3501.44l-523.6,0.11l-0.11-523.6l523.6-0.11L1881.25,3501.44z M1371.29,3487.91l496.33-0.1
		l-0.1-496.33l-496.33,0.1L1371.29,3487.91z"/>
	<path class="st5" d="M1785.45,1628.07l-38.84-39.95c-3.71-3.82-9.82-3.9-13.64-0.19l-154.92,150.61l-79.98-79.27
		c-3.7-3.83-9.81-3.93-13.64-0.23l-40.07,38.72c-3.83,3.71-3.94,9.81-0.23,13.64l126.46,125.33c3.7,3.83,9.8,3.94,13.64,0.23
		l28.77-27.8c0.05-0.04,0.1-0.07,0.15-0.12l4.31-4.19l6.84-6.61c0.07-0.07,0.12-0.15,0.19-0.23l160.77-156.31
		C1789.08,1637.99,1789.17,1631.89,1785.45,1628.07z"/>
	<path class="st4" d="M1880.93,1963.49l-523.6,0.11l-0.11-523.6l523.6-0.11L1880.93,1963.49z M1370.96,1949.96l496.33-0.1
		l-0.1-496.33l-496.33,0.1L1370.96,1949.96z"/>
	<path class="st6" d="M1785.62,2400.97l-38.84-39.95c-3.71-3.82-9.82-3.9-13.64-0.19l-154.92,150.61l-79.98-79.27
		c-3.7-3.83-9.81-3.93-13.64-0.23l-40.07,38.72c-3.83,3.71-3.94,9.81-0.23,13.64l126.46,125.33c3.7,3.83,9.8,3.94,13.64,0.23
		l28.77-27.8c0.05-0.04,0.1-0.07,0.15-0.12l4.31-4.19l6.84-6.61c0.07-0.07,0.12-0.15,0.19-0.23l160.77-156.31
		C1789.24,2410.9,1789.33,2404.79,1785.62,2400.97z"/>
	<path class="st6" d="M1785.77,3147.42l-38.84-39.95c-3.71-3.82-9.82-3.9-13.64-0.19l-154.92,150.61l-79.98-79.27
		c-3.7-3.83-9.81-3.93-13.64-0.23l-40.07,38.72c-3.83,3.71-3.94,9.81-0.23,13.64l126.46,125.33c3.7,3.83,9.8,3.94,13.64,0.23
		l28.77-27.8c0.05-0.04,0.1-0.07,0.15-0.12l4.31-4.19l6.84-6.61c0.07-0.07,0.12-0.15,0.19-0.23l160.77-156.31
		C1789.4,3157.35,1789.49,3151.25,1785.77,3147.42z"/>
	<path class="st4" d="M1881.09,2736.39l-523.6,0.11l-0.11-523.6l523.6-0.11L1881.09,2736.39z M1371.12,2722.86l496.33-0.1
		l-0.11-496.33l-496.33,0.1L1371.12,2722.86z"/>
	<g>
		<g>
			<path class="st7" d="M2030.52,813.13l0,20.48l-50.08,0.01l0.04,183.56l-62.78,0.01l-0.04-183.56l-50.37,0.01l0-20.48
				L2030.52,813.13z"/>
			<path class="st7" d="M2129.32,809.53c59.39-0.01,89.1,35.16,89.11,105.51c0.02,70.35-30.22,105.54-90.71,105.55
				c-60.49,0.01-90.74-35.95-90.76-107.9C2036.95,843.93,2067.74,809.54,2129.32,809.53z M2127.68,825.82
				c-11.16,0-18.71,6.16-22.64,18.47c-3.94,12.31-5.9,35.9-5.89,70.78c0.01,34.88,1.98,58.47,5.92,70.78
				c3.94,12.31,11.49,18.46,22.65,18.46c11.16,0,18.71-6.16,22.64-18.47c3.93-12.31,5.9-35.9,5.89-70.78
				c-0.01-34.78-1.98-58.35-5.92-70.7C2146.39,831.99,2138.84,825.82,2127.68,825.82z"/>
			<path class="st7" d="M2336.4,1017.11l-0.04-204.04l84.6-0.02c60.09-0.01,90.14,34.06,90.16,102.22
				c0.01,67.86-31.12,101.8-93.4,101.81L2336.4,1017.11z M2395.58,1000.2l15.55,0c14.25,0,24.11-6.16,29.59-18.46
				c5.47-12.31,8.21-34.56,8.21-66.74c-0.01-32.19-2.73-54.41-8.16-66.67c-5.44-12.26-15.33-18.38-29.68-18.38l-15.55,0
				L2395.58,1000.2z"/>
			<path class="st7" d="M2620.66,809.42c59.39-0.01,89.09,35.16,89.11,105.51c0.02,70.36-30.22,105.54-90.71,105.55
				c-60.49,0.01-90.74-35.95-90.75-107.9C2528.29,843.82,2559.07,809.43,2620.66,809.42z M2619.02,825.72
				c-11.16,0-18.71,6.16-22.64,18.47c-3.93,12.31-5.9,35.9-5.89,70.78c0.01,34.88,1.98,58.47,5.92,70.78
				c3.94,12.31,11.49,18.46,22.65,18.46c11.16,0,18.71-6.16,22.64-18.46c3.93-12.31,5.9-35.9,5.89-70.78
				c-0.01-34.78-1.98-58.35-5.92-70.7C2637.72,831.89,2630.18,825.71,2619.02,825.72z"/>
			<path class="st7" d="M2886.88,812.95l0.04,183.56l83.86-0.02l0.01,20.48l-143.05,0.03l-0.04-204.04L2886.88,812.95z"/>
			<path class="st7" d="M3042.63,812.92l0.04,204.04l-59.19,0.01l-0.04-204.04L3042.63,812.92z"/>
			<path class="st7" d="M3211.41,869.99l-27.5,5.09c1.19-5.48,1.79-10.06,1.79-13.75c-0.01-23.72-14.41-35.57-43.21-35.57
				c-22.72,0-34.08,8.18-34.07,24.52c0,12.26,12.71,22.77,38.12,31.53c49.03,16.83,73.55,41.74,73.56,74.72
				c0,19.33-6.87,34.86-20.62,46.57c-13.75,11.71-32.04,17.57-54.86,17.57c-50.52,0.01-75.79-19.57-75.8-58.73
				c0-3.19,0.25-7.12,0.75-11.81l28.55-6.28c-2.19,8.67-3.28,16.2-3.28,22.57c0.01,25.31,14.51,37.97,43.51,37.96
				c23.22,0,34.83-9.12,34.82-27.36c0-13.55-13.91-25.46-41.71-35.72c-40.16-14.74-60.25-38.3-60.26-70.69
				c0-18.33,6.7-33.11,20.1-44.33c13.4-11.21,31.01-16.82,52.84-16.83C3188.97,809.45,3211.4,829.62,3211.41,869.99z"/>
			<path class="st7" d="M3389.27,812.85l0,20.48l-50.07,0.01l0.04,183.56l-62.78,0.01l-0.04-183.56l-50.37,0.01l-0.01-20.48
				L3389.27,812.85z"/>
		</g>
	</g>
	<rect x="1255.07" y="1042.51" class="st8" width="2126.48" height="7.17"/>
	<rect x="1255.33" y="967.52" class="st9" width="598.8" height="40.23"/>
	<rect x="1565.63" y="913.09" class="st9" width="288.48" height="40.23"/>
	<rect x="2124.98" y="1502.97" class="st4" width="1256.67" height="12.55"/>
	<rect x="2125.01" y="1645.88" class="st4" width="1256.67" height="12.55"/>
	<rect x="2125.04" y="1793.73" class="st4" width="1256.67" height="12.55"/>
	<rect x="2125.07" y="1936.64" class="st4" width="1256.67" height="12.55"/>
	<rect x="2125.1" y="2079.56" class="st4" width="1256.67" height="12.55"/>
	<rect x="2125.13" y="2215.08" class="st4" width="1256.67" height="12.55"/>
	<rect x="2125.16" y="2360.46" class="st4" width="1256.67" height="12.55"/>
	<rect x="2125.19" y="2505.84" class="st4" width="1256.67" height="12.55"/>
	<rect x="2125.22" y="2648.76" class="st4" width="1256.67" height="12.55"/>
	<rect x="2125.25" y="2791.67" class="st4" width="1256.67" height="12.55"/>
	<rect x="2125.28" y="2934.59" class="st4" width="1256.67" height="12.55"/>
	<rect x="2125.31" y="3082.43" class="st4" width="1256.67" height="12.55"/>
	<rect x="2125.34" y="3225.35" class="st4" width="1256.67" height="12.55"/>
	<rect x="2125.37" y="3360.87" class="st4" width="1256.67" height="12.55"/>
	<path class="st2" d="M3610.54,2468.8c-2.33-8.15-0.36-16.85,1.21-25.21c10.72-56.46,3.03-114.92-11.65-170.24
		c-14.66-55.33-36.17-108.48-53.76-162.91c-7.97-24.71-15.23-50.05-16.43-76.03c-0.09-1.83-0.12-3.64-0.15-5.48
		c-0.37-27.88,7.39-56.9,26.23-77.36c15.6-16.98,39.7-26.65,61.81-23.15c4.58,0.69,9.08,1.97,13.39,3.88
		c26.66,11.74,39.8,41.63,50.61,69.01c14.92,37.85,29.88,75.72,44.83,113.59c9.68,24.53,85.83,237.14,83.34,264.06
		c-2.39,25.64-112.68,36.64-121.7,60.83c-24,64.34-12.45-28.5-47.96,30.18c-2.78,4.57-5.94,9.43-10.96,11.17
		C3621.4,2483.92,3612.87,2476.92,3610.54,2468.8z"/>
	<path class="st2" d="M4303.21,4562.87c-183.41,12.2-217.91,102.92-396.11,155.11c-40.77,11.95-230.79,79.4-270.12,94.31
		c-1.4-10.15-136.22-288.65-156.49-335.68c-15.69-36.36-5.54-11.14-17.15-49.51c-13.03-43.02-96.63-279.76-111.5-322.13
		c-24.88-70.7-290.37-331.44-343.62-402.03c-16.88-22.38-22.99-51.2-24-79.2c-1.06-28-9.33-91.9-8.97-119.9
		c1.08-89.04-27.23-128.73-72.99-205.19c-18.16-30.34-35.21-60.94-52.98-90.87l209.23-110.02c36.04,82.38,95.43,89.77,169.82,97.07
		c31.07,3.02,61.93,2.11,92.75-0.63c8.26-0.77,16.54-1.62,24.8-2.58c0.53-0.06,1.01-0.08,1.52-0.18
		c35.61-4.2,64.83-10.49,100.52-20.6c24.23-6.88,45.47-34.52,50.3-59.74c0.1-0.41,0.16-0.79,0.24-1.16
		c0.14-0.81,0.24-1.62,0.37-2.43c2.31-17.63-3.31-35.25-8.87-52.11c-5.52-16.82-11.02-33.6-16.52-50.44
		c-0.06-0.1-0.1-0.24-0.18-0.39c-0.89-2.76-1.79-5.48-2.7-8.24c-18.04-55.01-59.17-96.43-106.85-129.28
		c-80.6-55.54-133.23-88.35-216.21-127.23c-7.97-3.73-15.26-6.98-22.06-9.86l25.32-237.57c29.73,7.95,61.81,18.73,110.02,36.4
		c63.03,23.11,143.97,36.57,210.79,31.39c1.18-0.06,2.37-0.16,3.53-0.26c-0.34-2.52-0.04-5.27-1.28-7.47
		c-16.64-28.87-29.44-33.77-65.8-61.32c-28.98-21.98-59.64-40.77-86.14-65.7c-28-26.36-58.03-57.08-83.58-85.81
		c-38.78-43.5-77.68-87.13-122.13-124.75c-25.61-21.67-52.92-41.15-80.64-60c-32.79-22.22-66.41-43.67-95.21-70.84
		c-28.75-27.21-52.76-61.04-61.16-99.73c-5.8-26.68-3.1-55.88,8.71-80.19c2.78-5.76,6.07-11.26,9.88-16.31
		c3.45-4.65,7.3-8.99,11.57-12.93c13.9-12.84,32.99-21.53,51.6-18.16c13.76,2.5,25.51,11.1,36.75,19.42
		c81.77,60.87,172.48,110.47,245.71,181.43c24.67,23.96,54.44,42.59,86.71,54.4c2.74,1.04,5.48,1.97,8.22,2.86
		c-0.22-0.65-0.49-1.32-0.77-1.93c-9.86-24.65-32.45-41.88-48.84-62.96c-23.82-30.7-46.55-78.83-28.98-113.55
		c7.1-14.02,14.97-28.73,24.9-41.01c5.68-7,12.03-13.19,19.3-18c5.01-3.35,10.43-6.03,16.37-7.81c20.41-6.17,42.98-0.39,61.26,10.63
		c18.26,11.04,33.03,26.87,47.56,42.49c67.37,72.46,136.42,149.91,208.6,217.59c82.36,77.17,146.12,172.98,221.32,257.09
		c31.57,35.39,72.89,69.74,81.37,116.39c18.14,99.47,28.08,181.1,23.54,282.11c24.59,75.24,116.31,114.42,136.82,190.88
		c12.99,48.25-6.03,98.72-24.84,145.02c-70.68,173.86-123.13,348.81-170.33,530.5c-47.22,181.65,289.64,508.16,323.24,692.83
		C4240.99,4422.09,4270.25,4509.3,4303.21,4562.87z"/>
	<path class="st10" d="M3837.65,2670.17c-82.22-123.74-356.81-468.36-482.91-546.88c-5.63-3.52-11.39-6.96-17.2-10.4
		c-9.86-24.65-32.45-41.87-48.84-62.95c-23.85-30.7-46.54-78.84-28.97-113.54c7.09-14.05,14.95-28.75,24.87-41.01
		c-1.84,23.81,4.41,48.87,13.54,70.2c12.78,29.89,32.53,56.2,52.66,81.72c49.73,63.05,103.16,123.17,159.91,179.97
		c32.05,32.11,65.35,63.38,91.89,100.2C3629.1,2364.29,3837.21,2624.8,3837.65,2670.17z"/>
	<path class="st10" d="M3746.21,2918.94c-77.59-151.77-178.56-256.64-198.75-282.08c-22.76-28.68-46.86-54.95-75.88-76.66
		c1.18-0.05,2.37-0.16,3.54-0.27c-0.35-2.51-0.04-5.28-1.3-7.47c-16.63-28.86-29.41-33.76-65.78-61.31
		c-28.98-21.99-59.66-40.77-86.15-65.72c-28.01-26.36-58.02-57.07-83.57-85.8c-38.79-43.51-77.68-87.13-122.15-124.77
		c-25.6-21.65-52.91-41.15-80.63-59.98c-32.78-22.24-66.41-43.67-95.19-70.86c-28.76-27.22-52.76-61.04-61.17-99.73
		c-5.79-26.69-3.09-55.88,8.69-80.2c2.79-5.75,6.08-11.24,9.89-16.3c8.1,3.87,15.32,10.33,19.96,17.89
		c10.32,16.82,11.96,37.29,15.78,56.66c15.22,76.77,73.94,145.99,150.18,163.64c8.95,2.07,18.2,3.49,26.33,7.74
		c14.7,7.64,23.39,23.01,32.3,36.97c32.85,51.56,78.45,93.52,123.48,134.85c7.43,6.82,15.8,14.03,25.86,14.38
		c2.75,0.1,5.53-0.65,8.02-1.97c6.5-3.46,14.53-1.03,17.97,5.49c35.23,66.89,101.91,113.83,155.57,168.79
		C3525.23,2546.72,3737.33,2851.83,3746.21,2918.94z"/>
	<path class="st10" d="M3670.11,2204.79c-34.34-40.98-68.68-81.96-103.02-122.94c-12.78-15.25-25.75-30.94-37.18-47.44
		c-0.09-1.83-0.12-3.64-0.15-5.48c-0.37-27.88,7.39-56.9,26.23-77.36c15.6-16.98,39.7-26.65,61.81-23.15
		c-19,11.92-31.54,33.37-34.82,55.73c-4.56,31.23,5.65,62.62,17.65,91.82C3619.22,2121.18,3642.57,2164.42,3670.11,2204.79z"/>
	<path class="st11" d="M3040.26,2023.56l60.88-54.66c5.2-4.67,2.52-14.89-5.95-22.66l-54.22-49.77c0,0-44.55-38.02-84.57-14.41
		c0,0-31.98,21.47-5.05,69.96c0,0,12.08,19.31,47.53,49.56l17.1,16.2C3024.23,2025.58,3035.12,2028.17,3040.26,2023.56z"/>
	<path class="st11" d="M3398.61,2040.39l71.02-40.62c6.07-3.47,5.59-14.03-1.04-23.4l-42.52-60.07c0,0-35.55-46.55-79.64-31.89
		c0,0-35.78,14.26-19.67,67.32c0,0,7.75,21.42,36.03,58.46l13.31,19.44C3382.51,2039,3392.61,2043.82,3398.61,2040.39z"/>
	<path class="st11" d="M3660.43,2053.66l33.09-2.36c2.83-0.2,3.36-6.64,1.19-14.27l-13.93-48.88c0,0-11.9-38.68-31.71-43.51
		c0,0-16.24-2.51-13.08,34.07c0,0,1.81,15.15,11.27,45.92l4.32,15.68C3653.67,2047.88,3657.63,2053.86,3660.43,2053.66z"/>
	
		<rect x="3667.92" y="3721.26" transform="matrix(-0.4064 -0.9137 0.9137 -0.4064 1483.6737 9277.5684)" class="st12" width="174.91" height="871.2"/>
	<polygon class="st13" points="4666.83,5000 3590.33,5000 3333.1,4422.8 3784.38,4222.06 4230.06,4023.79 	"/>
	<polygon class="st14" points="4668.45,5000 4130.42,5000 3784.38,4222.06 4230.06,4023.79 4232.84,4022.55 	"/>
	
		<rect x="1316.64" y="3886.42" transform="matrix(-0.0346 -0.9994 0.9994 -0.0346 -2866.7004 5874.9736)" class="st12" width="174.91" height="871.2"/>
	<polygon class="st13" points="1921.37,5000 938.23,5000 919.06,4410.23 1406.56,4393.33 1900.17,4376.22 	"/>
	<polygon class="st14" points="1427.6,5000 936.04,5000 916.01,4410.33 919.06,4410.23 1406.56,4393.33 	"/>
	
		<rect x="3071.22" y="2059.5" transform="matrix(0.3636 -0.9315 0.9315 0.3636 -675.0384 4793.5933)" class="st15" width="199.71" height="1662.76"/>
	
		<rect x="3135.62" y="2060.29" transform="matrix(0.3636 -0.9315 0.9315 0.3636 -676.0452 4793.7798)" class="st16" width="70.17" height="1662.84"/>
	
		<rect x="3162.57" y="1997.01" transform="matrix(0.3636 -0.9315 0.9315 0.3636 -601.3834 4776.5254)" class="st15" width="65.68" height="1662.84"/>
	
		<rect x="3867.77" y="3178.05" transform="matrix(0.3636 -0.9315 0.9315 0.3636 -457.7476 5733.5142)" class="st17" width="199.82" height="47.5"/>
	<path class="st5" d="M4166.94,3274.25l-3.6,9.22c-19.05,48.79-74.04,72.9-122.83,53.86l-86.98-33.95l72.58-185.91l86.98,33.95
		C4161.87,3170.46,4185.98,3225.46,4166.94,3274.25z"/>
	<path class="st18" d="M4165.14,3278.86l-1.82,4.67c-19.03,48.76-73.99,72.86-122.76,53.82l-87.03-33.97l36.29-92.96
		L4165.14,3278.86z"/>
	<polygon class="st19" points="2360.3,2681.57 2149.03,2493.51 2432.89,2495.4 	"/>
	<polygon class="st20" points="2222.99,2556.79 2247.62,2493.7 2151.05,2494.14 2222.25,2558.69 	"/>
	<path class="st2" d="M3062.28,3105.94l-205.34,114.85c-27.03-45.47-63.42-102.38-100.35-141.36c-19.95-21-40.42-41.56-61.36-61.52
		c-8.08-7.69-16.23-15.32-24.47-22.87c-22.67-20.8-45.94-41.01-69.7-60.57c-8.89-7.37-17.9-14.61-26.95-21.79
		c-28.96-22.83-59.11-45.33-80.23-75.54c-7.97-11.36-14.75-24.84-12.82-38.57c2.76-19.85,22.38-32.83,41.44-38.96
		c50.83-16.25,108.97-18.97,161.58-9.9c94.09,16.27,167.97,58.24,241.81,118.75c77.94,63.8,92.2,130.92,130.39,224.1
		C3057.01,3094.32,3061.51,3104.23,3062.28,3105.94z"/>
	<path class="st11" d="M2631.99,2942.85l67.16-64.38c5.74-5.5,0.04-18.28-12.63-28.34l-81.16-64.44c0,0-66.07-49.39-112.89-22.31
		c0,0-36.85,24.86,8.61,86.26c0,0,19.87,24.53,72.44,63.83l25.71,20.94C2611.63,2944.5,2626.32,2948.28,2631.99,2942.85z"/>
	<path class="st2" d="M3156.12,2493.87l-26.89,237.74c-45.29-19.2-72.67-23.65-132.89-45.87
		c-108.27-39.91-184.41-44.88-299.81-43.61c-17.27,0.2-34.9,0.34-52.01-1.79c-13.45-1.68-26.6-4.75-39.02-10.21
		c-9.52-4.22-18.45-10.33-26.01-17.69c-0.73-0.71-1.44-1.4-2.11-2.15c-13.64-14.22-22-32.87-19.46-52.15
		c2.62-19.56,15.93-36.44,32.18-47.68c16.25-11.22,35.31-17.57,54.2-23.34c123.13-37.64,228.66-43.57,354.74-23.23
		C3071.13,2475.51,3113.89,2482.56,3156.12,2493.87z"/>
	<path class="st11" d="M2736.27,2574.44l-0.07-81.82c-0.01-6.99-9.41-11.81-20.84-10.7l-73.25,7.15c0,0-58.05,7.8-67.18,53.36
		c0,0-5.36,38.15,48.72,50.46c0,0,22.45,3.89,68.63-2.31l23.48-1.93C2727.08,2587.73,2736.27,2581.36,2736.27,2574.44z"/>
	<path class="st2" d="M1047.6,2958.02c-1.49-40.35,5.99-107.61,5.99-107.61s11.89-37.09,59.92-107.24
		c53.54-78.2,156.64-221.65,159.19-226.74l0.06-0.12c51.48-11.36,98.05-30.54,98.05-30.54c1.18-0.4,2.35-0.81,3.51-1.24
		c1.54-0.55,3.05-1.11,4.55-1.68c48.76-18.51,89.64-53.3,116.84-97.8l38.47-62.94l11.49-18.81c19.2-31.43,24.91-69.34,15.56-104.96
		c-11.34-43.24-31.5-75.53-31.5-75.53l-170.35,73.06c-44.31,29.48-182.02,50.74-182.02,50.74
		c-113.11,19.9-140.99,65.69-140.99,65.69l-203.6,239.95C723.08,2652.55,632.3,2863.9,632.3,2863.9
		c-54.18,127.43,23.89,246.25,23.89,246.25c9.66,20.73,48.94,172.75,48.94,172.75c-0.17,21.7,20.58,141.44,28.23,184.81
		c1.67,9.45,3.92,18.78,6.67,27.97c7.37,24.57,15.67,60.72,30.39,90.68l281.29-560.26
		C1050.69,3026.96,1047.65,2959.33,1047.6,2958.02z"/>
	<path class="st11" d="M1336.2,2207.61c0,0-24.49,10.47-0.77,26.86c0,0,40.81,36.82,119.54-7.44c0,0,74.53-30.94,79.33-79.54
		l0.95-27.41L1336.2,2207.61z"/>
	<path class="st10" d="M1534.18,2322.1l-38.53,63.04c-27.23,44.56-68.21,79.33-117.06,97.81c-1.41,0.53-2.84,1.06-4.28,1.58
		c-1.16,0.43-2.33,0.84-3.51,1.24c0,0-46.57,19.18-98.05,30.54l-0.06,0.12c-2.55,5.09-96.43,143.72-159.19,226.74
		c-50.8,67.2-64.96,167.94-64.96,167.94s-33.53,23.82-59.49-15.65c-25.96-39.47-2.94-67.23-2.94-67.23s-110.62-51.6-116.74-87.07
		c0,0,6.13-20.36,86.41,25.03c0,0,27.14,17.63,54.97,17.45c0,0,15.06,2.25,33.9-17.21c8.27-8.54,17.49-16.11,27.78-22.06
		c8.02-4.63,17.32-9.45,25.5-12.23c0,0,8.97-5.12,72.39-92.39c0,0,53.81-79.48,60.65-118.62c0,0-136.27-53.85-123.53-77.28
		c0,0,189.11,23.07,302.8-38.41C1410.26,2405.41,1461.95,2375.19,1534.18,2322.1z"/>
</g>
</svg>
